<svg width="190"  height="13" viewBox="0 0 162 13" fill="none" xmlns="http://www.w3.org/2000/svg">
<path d="M3.57812 8.85156L6.71875 0.625H9.27344L4.3125 12H1.97656L0.59375 0.625H3.02344L3.57812 8.85156ZM10.8203 12H8.57812L10.5547 0.625H12.7969L10.8203 12ZM20.4922 12H18.3047L16.3203 4.46094L15.0078 12H12.7656L14.7344 0.625H16.9297L18.9219 8.17188L20.2344 0.625H22.4688L20.4922 12ZM30.9062 2.53906H28.1797L26.5391 12H24.2891L25.9297 2.53906H23.2422L23.5781 0.625H31.2422L30.9062 2.53906ZM35.3828 9.67188H32.3594L31.3672 12H28.9297L34.3516 0.625H36.4062L37.8984 12H35.5781L35.3828 9.67188ZM33.1797 7.75781H35.2266L34.9062 3.72656L33.1797 7.75781ZM46.6797 10.7109C46.2578 11.1797 45.7083 11.5417 45.0312 11.7969C44.3542 12.0469 43.6276 12.1667 42.8516 12.1562C42.1693 12.151 41.5781 12.0026 41.0781 11.7109C40.5781 11.4141 40.1901 10.987 39.9141 10.4297C39.6432 9.86719 39.4974 9.22135 39.4766 8.49219C39.4609 8.09635 39.4792 7.69271 39.5312 7.28125L39.8125 5.39844C40.0521 3.8151 40.5677 2.59115 41.3594 1.72656C42.151 0.861979 43.1823 0.442708 44.4531 0.46875C45.5365 0.489583 46.3516 0.817708 46.8984 1.45312C47.4505 2.08333 47.7318 3.01823 47.7422 4.25781L45.5625 4.25L45.5391 3.625C45.4714 2.8125 45.0729 2.39323 44.3438 2.36719C43.2656 2.32552 42.5573 3.03646 42.2188 4.5L42.1016 5.08594L41.7891 7.28125C41.7214 7.78125 41.6953 8.20833 41.7109 8.5625C41.737 9.14583 41.8672 9.57031 42.1016 9.83594C42.3411 10.0964 42.6771 10.2318 43.1094 10.2422C43.5156 10.2526 43.9688 10.1198 44.4688 9.84375L44.8672 7.75H43.2969L43.6016 6.01562H47.3984L46.6797 10.7109ZM54.5781 7.07812H51.1094L50.5859 10.0938H54.6953L54.3594 12H48.0156L49.9844 0.625H56.3203L55.9844 2.53906H51.8984L51.4297 5.22656H54.9062L54.5781 7.07812ZM64.6172 8.95312C64.6693 8.56771 64.612 8.2474 64.4453 7.99219C64.2839 7.73177 63.9427 7.47917 63.4219 7.23438C62.9062 6.98438 62.474 6.72656 62.125 6.46094C61.1719 5.73698 60.7344 4.82292 60.8125 3.71875C60.8594 3.08333 61.0573 2.51823 61.4062 2.02344C61.7604 1.52344 62.2318 1.13542 62.8203 0.859375C63.4089 0.583333 64.0391 0.453125 64.7109 0.46875C65.6849 0.489583 66.4453 0.828125 66.9922 1.48438C67.5443 2.13542 67.7995 2.97135 67.7578 3.99219L65.5234 3.98438C65.5807 2.91667 65.2396 2.375 64.5 2.35938C64.1198 2.34896 63.7917 2.47396 63.5156 2.73438C63.2448 2.98958 63.0807 3.32031 63.0234 3.72656C62.9453 4.33594 63.3672 4.85677 64.2891 5.28906C65.2109 5.72135 65.8724 6.20833 66.2734 6.75C66.7214 7.34896 66.9115 8.07812 66.8438 8.9375C66.7656 9.92708 66.375 10.7188 65.6719 11.3125C64.9688 11.901 64.0911 12.1849 63.0391 12.1641C61.9818 12.1432 61.1458 11.7839 60.5312 11.0859C59.9167 10.388 59.6354 9.49479 59.6875 8.40625L61.9375 8.41406C61.8958 9.08594 61.9818 9.56771 62.1953 9.85938C62.4141 10.1458 62.7552 10.2891 63.2188 10.2891C63.625 10.2839 63.9453 10.1589 64.1797 9.91406C64.4141 9.66406 64.5599 9.34375 64.6172 8.95312ZM76.6406 2.53906H73.9141L72.2734 12H70.0234L71.6641 2.53906H68.9766L69.3125 0.625H76.9766L76.6406 2.53906ZM81.1172 9.67188H78.0938L77.1016 12H74.6641L80.0859 0.625H82.1406L83.6328 12H81.3125L81.1172 9.67188ZM78.9141 7.75781H80.9609L80.6406 3.72656L78.9141 7.75781ZM92.625 2.53906H89.8984L88.2578 12H86.0078L87.6484 2.53906H84.9609L85.2969 0.625H92.9609L92.625 2.53906ZM98.9062 7.07812H95.4375L94.9141 10.0938H99.0234L98.6875 12H92.3438L94.3125 0.625H100.648L100.312 2.53906H96.2266L95.7578 5.22656H99.2344L98.9062 7.07812ZM109.398 9.67188H106.375L105.383 12H102.945L108.367 0.625H110.422L111.914 12H109.594L109.398 9.67188ZM107.195 7.75781H109.242L108.922 3.72656L107.195 7.75781ZM115.984 8L115.289 12H113.047L115.016 0.625L118.664 0.632812C119.659 0.664062 120.438 1.02083 121 1.70312C121.568 2.38021 121.807 3.25521 121.719 4.32812C121.615 5.44271 121.193 6.33594 120.453 7.00781C119.714 7.67448 118.771 8.00781 117.625 8.00781L115.984 8ZM116.312 6.08594L117.758 6.10156C118.315 6.09115 118.747 5.8776 119.055 5.46094C119.362 5.03906 119.508 4.47396 119.492 3.76562C119.482 3.40625 119.396 3.11979 119.234 2.90625C119.073 2.69271 118.849 2.57552 118.562 2.55469L116.93 2.53906L116.312 6.08594ZM124.891 8L124.195 12H121.953L123.922 0.625L127.57 0.632812C128.565 0.664062 129.344 1.02083 129.906 1.70312C130.474 2.38021 130.714 3.25521 130.625 4.32812C130.521 5.44271 130.099 6.33594 129.359 7.00781C128.62 7.67448 127.677 8.00781 126.531 8.00781L124.891 8ZM125.219 6.08594L126.664 6.10156C127.221 6.09115 127.654 5.8776 127.961 5.46094C128.268 5.03906 128.414 4.47396 128.398 3.76562C128.388 3.40625 128.302 3.11979 128.141 2.90625C127.979 2.69271 127.755 2.57552 127.469 2.55469L125.836 2.53906L125.219 6.08594ZM135.164 9.67188H132.141L131.148 12H128.711L134.133 0.625H136.188L137.68 12H135.359L135.164 9.67188ZM132.961 7.75781H135.008L134.688 3.72656L132.961 7.75781ZM142.922 7.84375H141.781L141.062 12H138.82L140.789 0.625L144.227 0.632812C145.242 0.664062 146.021 0.976562 146.562 1.57031C147.104 2.16406 147.333 2.97396 147.25 4C147.12 5.55729 146.411 6.64062 145.125 7.25L146.266 11.875V12H143.859L142.922 7.84375ZM142.109 5.92969L143.289 5.94531C143.831 5.9349 144.258 5.72135 144.57 5.30469C144.883 4.88281 145.036 4.32552 145.031 3.63281C145.01 2.95052 144.711 2.58854 144.133 2.54688L142.703 2.53906L142.109 5.92969ZM154.047 7.07812H150.578L150.055 10.0938H154.164L153.828 12H147.484L149.453 0.625H155.789L155.453 2.53906H151.367L150.898 5.22656H154.375L154.047 7.07812ZM157.758 10.0938H161.672L161.336 12H155.188L157.156 0.625H159.398L157.758 10.0938Z" fill="white"/>
</svg>
