<svg width="800" height="100" viewBox="0 0 375 50" fill="none" xmlns="http://www.w3.org/2000/svg">
<path opacity="0.3" d="M0.737305 9.45801L4.27051 0.203125H7.14453L1.56348 13H-1.06445L-2.62012 0.203125H0.113281L0.737305 9.45801ZM18.8848 13H16.3623L18.5859 0.203125H21.1084L18.8848 13ZM39.7656 13H37.3047L35.0723 4.51855L33.5957 13H31.0732L33.2881 0.203125H35.7578L37.999 8.69336L39.4756 0.203125H41.9893L39.7656 13ZM61.4814 2.35645H58.4141L56.5684 13H54.0371L55.8828 2.35645H52.8594L53.2373 0.203125H61.8594L61.4814 2.35645ZM76.5176 10.3809H73.1162L72 13H69.2578L75.3574 0.203125H77.6689L79.3477 13H76.7373L76.5176 10.3809ZM74.0391 8.22754H76.3418L75.9814 3.69238L74.0391 8.22754ZM99.2266 11.5498C98.752 12.0771 98.1338 12.4844 97.3721 12.7715C96.6104 13.0527 95.793 13.1875 94.9199 13.1758C94.1523 13.1699 93.4873 13.0029 92.9248 12.6748C92.3623 12.3408 91.9258 11.8604 91.6152 11.2334C91.3105 10.6006 91.1465 9.87402 91.123 9.05371C91.1055 8.6084 91.126 8.1543 91.1846 7.69141L91.501 5.57324C91.7705 3.79199 92.3506 2.41504 93.2412 1.44238C94.1318 0.469727 95.292 -0.00195312 96.7217 0.0273438C97.9404 0.0507812 98.8574 0.419922 99.4727 1.13477C100.094 1.84375 100.41 2.89551 100.422 4.29004L97.9697 4.28125L97.9434 3.57812C97.8672 2.66406 97.4189 2.19238 96.5986 2.16309C95.3857 2.11621 94.5889 2.91602 94.208 4.5625L94.0762 5.22168L93.7246 7.69141C93.6484 8.25391 93.6191 8.73438 93.6367 9.13281C93.666 9.78906 93.8125 10.2666 94.0762 10.5654C94.3457 10.8584 94.7236 11.0107 95.21 11.0225C95.667 11.0342 96.1768 10.8848 96.7393 10.5742L97.1875 8.21875H95.4209L95.7637 6.26758H100.035L99.2266 11.5498ZM118.112 7.46289H114.21L113.621 10.8555H118.244L117.866 13H110.729L112.944 0.203125H120.072L119.694 2.35645H115.098L114.57 5.37988H118.481L118.112 7.46289ZM149.406 9.57227C149.465 9.13867 149.4 8.77832 149.213 8.49121C149.031 8.19824 148.647 7.91406 148.062 7.63867C147.481 7.35742 146.995 7.06738 146.603 6.76855C145.53 5.9541 145.038 4.92578 145.126 3.68359C145.179 2.96875 145.401 2.33301 145.794 1.77637C146.192 1.21387 146.723 0.777344 147.385 0.466797C148.047 0.15625 148.756 0.00976562 149.512 0.0273438C150.607 0.0507812 151.463 0.431641 152.078 1.16992C152.699 1.90234 152.986 2.84277 152.939 3.99121L150.426 3.98242C150.49 2.78125 150.106 2.17188 149.274 2.1543C148.847 2.14258 148.478 2.2832 148.167 2.57617C147.862 2.86328 147.678 3.23535 147.613 3.69238C147.525 4.37793 148 4.96387 149.037 5.4502C150.074 5.93652 150.818 6.48438 151.27 7.09375C151.773 7.76758 151.987 8.58789 151.911 9.55469C151.823 10.668 151.384 11.5586 150.593 12.2266C149.802 12.8887 148.814 13.208 147.631 13.1846C146.441 13.1611 145.501 12.7568 144.81 11.9717C144.118 11.1865 143.802 10.1816 143.86 8.95703L146.392 8.96582C146.345 9.72168 146.441 10.2637 146.682 10.5918C146.928 10.9141 147.312 11.0752 147.833 11.0752C148.29 11.0693 148.65 10.9287 148.914 10.6533C149.178 10.3721 149.342 10.0117 149.406 9.57227ZM172.933 2.35645H169.865L168.02 13H165.488L167.334 2.35645H164.311L164.688 0.203125H173.311L172.933 2.35645ZM187.969 10.3809H184.567L183.451 13H180.709L186.809 0.203125H189.12L190.799 13H188.188L187.969 10.3809ZM185.49 8.22754H187.793L187.433 3.69238L185.49 8.22754ZM210.915 2.35645H207.848L206.002 13H203.471L205.316 2.35645H202.293L202.671 0.203125H211.293L210.915 2.35645ZM227.981 7.46289H224.079L223.49 10.8555H228.113L227.735 13H220.599L222.813 0.203125H229.941L229.563 2.35645H224.967L224.439 5.37988H228.351L227.981 7.46289ZM259.785 10.3809H256.384L255.268 13H252.525L258.625 0.203125H260.937L262.615 13H260.005L259.785 10.3809ZM257.307 8.22754H259.609L259.249 3.69238L257.307 8.22754ZM277.194 8.5L276.412 13H273.89L276.104 0.203125L280.209 0.211914C281.328 0.24707 282.204 0.648438 282.837 1.41602C283.476 2.17773 283.745 3.16211 283.646 4.36914C283.528 5.62305 283.054 6.62793 282.222 7.38379C281.39 8.13379 280.329 8.50879 279.04 8.50879L277.194 8.5ZM277.563 6.34668L279.189 6.36426C279.816 6.35254 280.303 6.1123 280.648 5.64355C280.994 5.16895 281.158 4.5332 281.141 3.73633C281.129 3.33203 281.032 3.00977 280.851 2.76953C280.669 2.5293 280.417 2.39746 280.095 2.37402L278.258 2.35645L277.563 6.34668ZM297.214 8.5L296.432 13H293.909L296.124 0.203125L300.229 0.211914C301.348 0.24707 302.224 0.648438 302.856 1.41602C303.495 2.17773 303.765 3.16211 303.665 4.36914C303.548 5.62305 303.073 6.62793 302.241 7.38379C301.409 8.13379 300.349 8.50879 299.06 8.50879L297.214 8.5ZM297.583 6.34668L299.209 6.36426C299.836 6.35254 300.322 6.1123 300.668 5.64355C301.014 5.16895 301.178 4.5332 301.16 3.73633C301.148 3.33203 301.052 3.00977 300.87 2.76953C300.688 2.5293 300.437 2.39746 300.114 2.37402L298.277 2.35645L297.583 6.34668ZM318.771 10.3809H315.37L314.254 13H311.512L317.611 0.203125H319.923L321.602 13H318.991L318.771 10.3809ZM316.293 8.22754H318.596L318.235 3.69238L316.293 8.22754ZM337.499 8.32422H336.216L335.407 13H332.885L335.1 0.203125L338.967 0.211914C340.109 0.24707 340.985 0.598633 341.595 1.2666C342.204 1.93457 342.462 2.8457 342.368 4C342.222 5.75195 341.425 6.9707 339.978 7.65625L341.261 12.8594V13H338.554L337.499 8.32422ZM336.585 6.1709L337.912 6.18848C338.521 6.17676 339.002 5.93652 339.354 5.46777C339.705 4.99316 339.878 4.36621 339.872 3.58691C339.849 2.81934 339.512 2.41211 338.861 2.36523L337.253 2.35645L336.585 6.1709ZM360.015 7.46289H356.112L355.523 10.8555H360.146L359.769 13H352.632L354.847 0.203125H361.975L361.597 2.35645H357L356.473 5.37988H360.384L360.015 7.46289ZM374.189 10.8555H378.593L378.215 13H371.298L373.513 0.203125H376.035L374.189 10.8555ZM422.638 9.45801L426.171 0.203125H429.045L423.464 13H420.836L419.28 0.203125H422.014L422.638 9.45801ZM440.785 13H438.263L440.486 0.203125H443.009L440.785 13ZM461.666 13H459.205L456.973 4.51855L455.496 13H452.974L455.188 0.203125H457.658L459.899 8.69336L461.376 0.203125H463.89L461.666 13ZM483.382 2.35645H480.314L478.469 13H475.938L477.783 2.35645H474.76L475.138 0.203125H483.76L483.382 2.35645ZM498.418 10.3809H495.017L493.9 13H491.158L497.258 0.203125H499.569L501.248 13H498.638L498.418 10.3809ZM495.939 8.22754H498.242L497.882 3.69238L495.939 8.22754ZM521.127 11.5498C520.652 12.0771 520.034 12.4844 519.272 12.7715C518.511 13.0527 517.693 13.1875 516.82 13.1758C516.053 13.1699 515.388 13.0029 514.825 12.6748C514.263 12.3408 513.826 11.8604 513.516 11.2334C513.211 10.6006 513.047 9.87402 513.023 9.05371C513.006 8.6084 513.026 8.1543 513.085 7.69141L513.401 5.57324C513.671 3.79199 514.251 2.41504 515.142 1.44238C516.032 0.469727 517.192 -0.00195312 518.622 0.0273438C519.841 0.0507812 520.758 0.419922 521.373 1.13477C521.994 1.84375 522.311 2.89551 522.322 4.29004L519.87 4.28125L519.844 3.57812C519.768 2.66406 519.319 2.19238 518.499 2.16309C517.286 2.11621 516.489 2.91602 516.108 4.5625L515.977 5.22168L515.625 7.69141C515.549 8.25391 515.52 8.73438 515.537 9.13281C515.566 9.78906 515.713 10.2666 515.977 10.5654C516.246 10.8584 516.624 11.0107 517.11 11.0225C517.567 11.0342 518.077 10.8848 518.64 10.5742L519.088 8.21875H517.321L517.664 6.26758H521.936L521.127 11.5498ZM540.013 7.46289H536.11L535.521 10.8555H540.145L539.767 13H532.63L534.845 0.203125H541.973L541.595 2.35645H536.998L536.471 5.37988H540.382L540.013 7.46289ZM571.307 9.57227C571.365 9.13867 571.301 8.77832 571.113 8.49121C570.932 8.19824 570.548 7.91406 569.962 7.63867C569.382 7.35742 568.896 7.06738 568.503 6.76855C567.431 5.9541 566.938 4.92578 567.026 3.68359C567.079 2.96875 567.302 2.33301 567.694 1.77637C568.093 1.21387 568.623 0.777344 569.285 0.466797C569.947 0.15625 570.656 0.00976562 571.412 0.0273438C572.508 0.0507812 573.363 0.431641 573.979 1.16992C574.6 1.90234 574.887 2.84277 574.84 3.99121L572.326 3.98242C572.391 2.78125 572.007 2.17188 571.175 2.1543C570.747 2.14258 570.378 2.2832 570.067 2.57617C569.763 2.86328 569.578 3.23535 569.514 3.69238C569.426 4.37793 569.9 4.96387 570.938 5.4502C571.975 5.93652 572.719 6.48438 573.17 7.09375C573.674 7.76758 573.888 8.58789 573.812 9.55469C573.724 10.668 573.284 11.5586 572.493 12.2266C571.702 12.8887 570.715 13.208 569.531 13.1846C568.342 13.1611 567.401 12.7568 566.71 11.9717C566.019 11.1865 565.702 10.1816 565.761 8.95703L568.292 8.96582C568.245 9.72168 568.342 10.2637 568.582 10.5918C568.828 10.9141 569.212 11.0752 569.733 11.0752C570.19 11.0693 570.551 10.9287 570.814 10.6533C571.078 10.3721 571.242 10.0117 571.307 9.57227ZM594.833 2.35645H591.766L589.92 13H587.389L589.234 2.35645H586.211L586.589 0.203125H595.211L594.833 2.35645ZM609.869 10.3809H606.468L605.352 13H602.609L608.709 0.203125H611.021L612.699 13H610.089L609.869 10.3809ZM607.391 8.22754H609.693L609.333 3.69238L607.391 8.22754ZM632.815 2.35645H629.748L627.902 13H625.371L627.217 2.35645H624.193L624.571 0.203125H633.193L632.815 2.35645ZM649.882 7.46289H645.979L645.391 10.8555H650.014L649.636 13H642.499L644.714 0.203125H651.842L651.464 2.35645H646.867L646.34 5.37988H650.251L649.882 7.46289ZM681.686 10.3809H678.284L677.168 13H674.426L680.525 0.203125H682.837L684.516 13H681.905L681.686 10.3809ZM679.207 8.22754H681.51L681.149 3.69238L679.207 8.22754ZM699.095 8.5L698.312 13H695.79L698.005 0.203125L702.109 0.211914C703.229 0.24707 704.104 0.648438 704.737 1.41602C705.376 2.17773 705.646 3.16211 705.546 4.36914C705.429 5.62305 704.954 6.62793 704.122 7.38379C703.29 8.13379 702.229 8.50879 700.94 8.50879L699.095 8.5ZM699.464 6.34668L701.09 6.36426C701.717 6.35254 702.203 6.1123 702.549 5.64355C702.895 5.16895 703.059 4.5332 703.041 3.73633C703.029 3.33203 702.933 3.00977 702.751 2.76953C702.569 2.5293 702.317 2.39746 701.995 2.37402L700.158 2.35645L699.464 6.34668ZM719.114 8.5L718.332 13H715.81L718.024 0.203125L722.129 0.211914C723.248 0.24707 724.124 0.648438 724.757 1.41602C725.396 2.17773 725.665 3.16211 725.565 4.36914C725.448 5.62305 724.974 6.62793 724.142 7.38379C723.31 8.13379 722.249 8.50879 720.96 8.50879L719.114 8.5ZM719.483 6.34668L721.109 6.36426C721.736 6.35254 722.223 6.1123 722.568 5.64355C722.914 5.16895 723.078 4.5332 723.061 3.73633C723.049 3.33203 722.952 3.00977 722.771 2.76953C722.589 2.5293 722.337 2.39746 722.015 2.37402L720.178 2.35645L719.483 6.34668ZM740.672 10.3809H737.271L736.154 13H733.412L739.512 0.203125H741.823L743.502 13H740.892L740.672 10.3809ZM738.193 8.22754H740.496L740.136 3.69238L738.193 8.22754ZM759.399 8.32422H758.116L757.308 13H754.785L757 0.203125L760.867 0.211914C762.01 0.24707 762.886 0.598633 763.495 1.2666C764.104 1.93457 764.362 2.8457 764.269 4C764.122 5.75195 763.325 6.9707 761.878 7.65625L763.161 12.8594V13H760.454L759.399 8.32422ZM758.485 6.1709L759.812 6.18848C760.422 6.17676 760.902 5.93652 761.254 5.46777C761.605 4.99316 761.778 4.36621 761.772 3.58691C761.749 2.81934 761.412 2.41211 760.762 2.36523L759.153 2.35645L758.485 6.1709ZM781.915 7.46289H778.013L777.424 10.8555H782.047L781.669 13H774.532L776.747 0.203125H783.875L783.497 2.35645H778.9L778.373 5.37988H782.284L781.915 7.46289ZM796.09 10.8555H800.493L800.115 13H793.198L795.413 0.203125H797.936L796.09 10.8555Z" fill="white"/>
</svg>
